# xmcd
#
# Track frame offsets: 
#        150
#        15150
#        29640
#        48628
#        62525
#        79208
#        92800
#        107538
#        119928
#
# Disc length: 1888 seconds
#
# Revision: 1
# Processed by: cddbd v1.4PL0 Copyright (c) Steve Scherf et al.
# Submitted via: ExactAudioCopy v0.90b4
#
DISCID=73075e09
DTITLE=Diamond Rio - 9 Well-Cut Gems
DYEAR=1900
DGENRE=Country
TTITLE0=Meet In The Middle
TTITLE1=Mirror Mirror
TTITLE2=Mama Don't Forget To Pray For Me
TTITLE3=Norma Jean Riley
TTITLE4=Nowhere Bound
TTITLE5=In A Week Or Two
TTITLE6=Oh Me, Oh My, Sweet Baby
TTITLE7=This Romeo Ain't Got Julie Yet
TTITLE8=Sawmill Road
EXTD=
EXTT0=
EXTT1=
EXTT2=
EXTT3=
EXTT4=
EXTT5=
EXTT6=
EXTT7=
EXTT8=
PLAYORDER=
